<?xml version="1.0" encoding="utf-8"?>
<!-- Generator: Adobe Illustrator 17.0.0, SVG Export Plug-In . SVG Version: 6.00 Build 0)  -->
<!DOCTYPE svg PUBLIC "-//W3C//DTD SVG 1.1//EN" "http://www.w3.org/Graphics/SVG/1.1/DTD/svg11.dtd">
<svg version="1.1" id="圖層_1" xmlns="http://www.w3.org/2000/svg" xmlns:xlink="http://www.w3.org/1999/xlink" x="0px" y="0px"
	 width="800px" height="800px" viewBox="0 0 800 800" enable-background="new 0 0 800 800" xml:space="preserve">
<g>
	<g>
		<path fill="#FFFFFF" d="M170.786,311.766c-2.717-24.358-2.395-49.003,0.21-73.356c2.774-25.933,8.474-52.058,18.93-76.031
			c-0.941,0.383-1.882,0.766-2.823,1.149c25.852,6.944,31.412,35.283,36.433,57.971c4.903,22.156,10.168,49.505,33.1,59.959
			c2.911,1.327,5.454-2.981,2.524-4.317c-23.556-10.738-27.101-40.715-32.168-63.085c-5.213-23.014-13.08-48.505-38.559-55.348
			c-0.986-0.265-2.381,0.134-2.823,1.149c-10.204,23.396-15.85,48.392-19.04,73.645c-3.27,25.892-3.676,52.321-0.782,78.266
			C166.139,314.934,171.143,314.968,170.786,311.766L170.786,311.766z"/>
	</g>
</g>
<g>
	<g>
		<path fill="#FFFFFF" d="M301.418,290.8c45.781-15.649,97.203-29.517,144.125-10.39c2.987,1.218,4.274-3.621,1.329-4.821
			c-47.691-19.441-100.238-5.52-146.784,10.39C297.056,287.016,298.358,291.846,301.418,290.8L301.418,290.8z"/>
	</g>
</g>
<g>
	<g>
		<path fill="#FFFFFF" d="M471.743,289.651c11.815-24.393,25.607-47.919,40.947-70.257c15.576-22.683,33.879-47.32,58.156-61.314
			c-1.01-0.13-2.02-0.261-3.03-0.391c8.449,8.177,12.382,19.64,15.327,30.748c3.401,12.827,5.235,26.025,7.709,39.046
			c2.494,13.129,6.873,24.905,11.427,37.419c5.823,16.001,9.618,32.551,11.558,49.461c0.363,3.165,5.367,3.2,5,0
			c-1.929-16.817-5.572-33.162-11.151-49.149c-2.542-7.284-5.795-14.308-8.001-21.704c-1.825-6.118-3.072-12.409-4.262-18.675
			c-4.417-23.254-5.984-53.178-24.071-70.681c-0.813-0.786-2.043-0.96-3.03-0.391c-23.869,13.758-41.797,37.348-57.419,59.472
			c-16.466,23.319-31.034,48.202-43.478,73.892C466.027,290.016,470.338,292.553,471.743,289.651L471.743,289.651z"/>
	</g>
</g>
<g>
	<g>
		<path fill="#FFFFFF" d="M174.779,349.526c-25.338-0.561-41.938,17.119-49.971,39.676c-10.071,28.283-9.065,60.636-5.051,89.945
			c4.151,30.313,12.273,61.232,27.474,87.994c5.64,9.93,12.616,19.446,21.826,26.339c7.616,5.7,17.207,9.029,25.892,12.68
			c13.644,5.736,27.688,10.497,41.946,14.452c56.058,15.549,115.831,16.368,172.335,2.671c14.889-3.609,29.59-7.577,44.643-10.522
			c15.001-2.934,30.087-5.414,45.122-8.166c28.973-5.304,58.344-11.667,85.12-24.321c17.8-8.412,32.839-21.116,43.919-37.379
			c11.157-16.376,17.823-35.49,24.237-54.084c7.912-22.938,16.911-45.561,17.339-70.156c0.442-25.414-9.084-49.342-22.544-70.488
			c-1.726-2.711-6.054-0.205-4.317,2.524c14.964,23.508,23.808,49.278,21.368,77.376c-1.227,14.124-5.654,27.444-10.271,40.745
			c-3.76,10.831-7.342,21.725-11.292,32.49c-7.102,19.358-15.889,38.312-30.4,53.283c-18.199,18.777-43.599,27.992-68.224,34.931
			c-29.349,8.271-59.682,12.364-89.581,18.075c-29.961,5.723-58.929,15.065-89.342,18.449
			c-59.361,6.606-120.071-3.316-174.692-27.266c-7.31-3.205-14.895-6.252-21.039-11.464c-4.257-3.611-7.913-7.922-11.177-12.433
			c-8.109-11.209-13.989-24.009-18.803-36.924c-11.303-30.324-17.07-63.213-17.166-95.552c-0.1-33.914,8.121-88.86,52.648-87.875
			C178.005,354.597,177.999,349.597,174.779,349.526L174.779,349.526z"/>
	</g>
</g>
<g>
	<g>
		<path fill="#FFFFFF" d="M311.33,485.158c5.69,20.513,5.046,56.247,32.376,60.565c13.178,2.082,26.008-6.504,34.927-15.279
			c9.239-9.09,17.324-22.181,16.828-35.562c-0.119-3.213-4.963-3.233-5,0c-0.155,13.683-4.287,28.401,0.009,41.808
			c4.649,14.508,22.504,8.033,31.482,2.4c6.402-4.016,12.179-9.051,17.781-14.095c6.04-5.439,12.559-10.385,18.272-16.167
			c13.408-13.569,20.432-31.28,24.38-49.646c0.676-3.144-4.144-4.481-4.821-1.329c-3.595,16.723-9.622,32.458-21.144,45.364
			c-5.028,5.631-11.128,9.961-16.677,15.014c-4.989,4.545-9.984,9.081-15.39,13.133c-7.628,5.719-26.176,16.87-29.769,1.412
			c-2.863-12.317,0.736-25.474,0.877-37.896c-1.667,0-3.333,0-5,0c0.453,12.249-7.137,23.611-15.364,32.026
			c-8.352,8.544-20.807,16.397-33.2,13.35c-11.182-2.749-16.085-14.579-18.923-24.549c-2.981-10.472-3.916-21.399-6.824-31.882
			C315.29,480.726,310.466,482.045,311.33,485.158L311.33,485.158z"/>
	</g>
</g>
<g>
	<g>
		<path fill="#FFFFFF" d="M200.119,394.696c19.088-5.35,35.496-19.495,56.171-18.251c18.254,1.099,40.275,18.278,29.735,37.863
			c-9.051,16.818-27.68,20.045-43.975,12.576c-14.661-6.719-27.441-19.836-33.943-34.562c-1.3-2.944-5.607-0.397-4.317,2.524
			c7.467,16.911,22.596,31.111,39.649,38.041c18.689,7.594,38.075,0.351,47.621-17.388c10.636-19.764-8.499-37.255-26.101-42.498
			c-24.289-7.235-44.102,10.69-66.169,16.875C195.69,390.744,197.008,395.568,200.119,394.696L200.119,394.696z"/>
	</g>
</g>
<g>
	<g>
		<path fill="#FFFFFF" d="M250.291,383.859c5.044,14.209,7.499,29.11,5.195,44.125c-0.484,3.153,4.334,4.508,4.821,1.329
			c2.447-15.948,0.177-31.653-5.195-46.784C254.041,379.514,249.209,380.813,250.291,383.859L250.291,383.859z"/>
	</g>
</g>
<g>
	<g>
		<path fill="#FFFFFF" d="M518.301,366.498c-14.949-3.11-30.889,2.638-43.998,9.47c-12.828,6.686-26.431,16.713-32.111,30.497
			c-5.68,13.783,4.86,24.448,16.913,29.36c20.024,8.161,42.83,3.368,61.778-5.522c17.082-8.014,31.265-20.963,38.252-38.722
			c2.39-6.075,2.361-12.355-1.738-17.594c-4.769-6.096-14.003-8.78-20.913-11.386c-3.023-1.14-4.317,3.695-1.329,4.821
			c6.761,2.549,19.594,5.978,20.629,14.74c0.56,4.742-1.971,9.648-4.085,13.692c-2.694,5.152-5.971,9.813-10.004,13.997
			c-15.64,16.226-40.419,25.609-62.782,25.139c-13.09-0.275-37.483-7.6-32.599-25.168c4.018-14.454,20.789-24.746,33.276-30.941
			c11.062-5.488,24.925-10.154,37.385-7.562C520.118,371.974,521.457,367.155,518.301,366.498L518.301,366.498z"/>
	</g>
</g>
<g>
	<g>
		<path fill="#FFFFFF" d="M507.344,372.805c-1.534,17.654-1.307,35.586,0,53.247c0.236,3.195,5.238,3.218,5,0
			c-1.307-17.661-1.534-35.592,0-53.247C512.623,369.592,507.621,369.618,507.344,372.805L507.344,372.805z"/>
	</g>
</g>
<g>
	<g>
		<path fill="#FFFFFF" d="M588.431,466.125c42.399-10.202,85.703-15.621,128.571-23.377c3.17-0.573,1.823-5.392-1.329-4.821
			c-42.868,7.756-86.172,13.174-128.571,23.377C583.968,462.058,585.297,466.879,588.431,466.125L588.431,466.125z"/>
	</g>
</g>
<g>
	<g>
		<path fill="#FFFFFF" d="M613.106,498.593c25.291-7.815,51.878-9.144,77.922-12.987c3.18-0.469,1.824-5.287-1.329-4.821
			c-26.044,3.843-52.628,5.171-77.922,12.987C608.706,494.72,610.017,499.547,613.106,498.593L613.106,498.593z"/>
	</g>
</g>
<g>
	<g>
		<path fill="#FFFFFF" d="M605.948,529.851c32.042-1.182,64.15,2.387,96.104-1.299c3.164-0.365,3.2-5.369,0-5
			c-31.954,3.686-64.062,0.117-96.104,1.299C602.734,524.969,602.722,529.97,605.948,529.851L605.948,529.851z"/>
	</g>
</g>
<g>
	<g>
		<path fill="#FFFFFF" d="M165.024,496.369c-30.224,9.081-61.624,12.894-92.842,16.794c-3.156,0.394-3.194,5.399,0,5
			c31.656-3.954,63.522-7.764,94.171-16.972C169.433,500.265,168.12,495.438,165.024,496.369L165.024,496.369z"/>
	</g>
</g>
<g>
	<g>
		<path fill="#FFFFFF" d="M189.065,526.149c-57.982,0.015-116.187,1.48-173.392,11.778c-3.17,0.571-1.823,5.389,1.329,4.821
			c56.755-10.217,114.539-11.584,172.063-11.599C192.289,531.148,192.289,526.148,189.065,526.149L189.065,526.149z"/>
	</g>
</g>
<g>
	<g>
		<path fill="#FFFFFF" d="M185.206,549.867c-34.729,19.902-72.653,33.232-109.792,47.8c-2.966,1.164-1.676,6,1.329,4.821
			c37.532-14.722,75.89-28.191,110.987-48.304C190.526,552.582,188.008,548.261,185.206,549.867L185.206,549.867z"/>
	</g>
</g>
<g>
	<g>
		<path fill="#FFFFFF" d="M394.223,490.127c-10.851-7.783-23.573-16.65-29.913-28.79c-7.905-15.136,15.193-19.943,25.32-21.638
			c5.545-0.928,12.032-0.561,16.374,3.392c3.712,3.379,4.412,8.775,4.216,13.512c-0.488,11.802-7.779,24.072-17.222,30.926
			c-2.582,1.874-0.091,6.215,2.524,4.317c11.338-8.229,19.151-21.993,19.733-36.075c0.245-5.922-1.486-11.952-5.715-16.216
			c-4.993-5.034-12.727-5.673-19.377-4.934c-12.566,1.396-35.656,7.09-32.063,24.254c1.45,6.924,7.005,12.922,11.807,17.769
			c6.596,6.658,14.194,12.349,21.793,17.8C394.325,496.328,396.818,491.988,394.223,490.127L394.223,490.127z"/>
	</g>
</g>
</svg>
